<svg viewBox="0 0 1000 1000" xmlns="http://www.w3.org/2000/svg"><defs><linearGradient id="b" gradientTransform="rotate(-45 .5 .5)"><stop offset="0%" stop-color="#FAD961"/><stop offset="100%" stop-color="#F76B1C"/></linearGradient><clipPath id="a"><path fill="currentColor" d="M848.5 645.5Q847 791 717 891.5T454 901q-133-91-259-167.5T108 514q39-143 110-261.5t205.5-101Q558 169 710 182.5T856 348q-6 152-7.5 297.5Z"/></clipPath></defs><g clip-path="url(#a)"><path fill="url(#b)" d="M848.5 645.5Q847 791 717 891.5T454 901q-133-91-259-167.5T108 514q39-143 110-261.5t205.5-101Q558 169 710 182.5T856 348q-6 152-7.5 297.5Z"/></g></svg>