<svg viewBox="0 0 1000 1000" xmlns="http://www.w3.org/2000/svg"><defs><linearGradient id="b" gradientTransform="rotate(-45 .5 .5)"><stop offset="0%" stop-color="#FAD961"/><stop offset="100%" stop-color="#F76B1C"/></linearGradient><clipPath id="a"><path fill="currentColor" d="M926.5 651.5Q862 803 718 860.5T412.5 925q-161.5 7-235-137t-80-290.5Q91 351 189.5 242t243-143Q577 65 730 122t207 217.5q54 160.5-10.5 312Z"/></clipPath></defs><g clip-path="url(#a)"><path fill="url(#b)" d="M926.5 651.5Q862 803 718 860.5T412.5 925q-161.5 7-235-137t-80-290.5Q91 351 189.5 242t243-143Q577 65 730 122t207 217.5q54 160.5-10.5 312Z"/></g></svg>